<?xml version="1.0" encoding="utf-8"?>
<!-- Generator: Adobe Illustrator 16.0.2, SVG Export Plug-In . SVG Version: 6.00 Build 0)  -->
<!DOCTYPE svg PUBLIC "-//W3C//DTD SVG 1.1//EN" "http://www.w3.org/Graphics/SVG/1.1/DTD/svg11.dtd">
<svg version="1.1" id="Layer_1" xmlns="http://www.w3.org/2000/svg" xmlns:xlink="http://www.w3.org/1999/xlink" x="0px" y="0px"
	 width="144px" height="72px" viewBox="0 0 144 72" enable-background="new 0 0 144 72" xml:space="preserve">
<g>
	<g>
		<g>
			<path fill="#009444" d="M25.831,53.654h2.171v7.748h3.803v1.816h-5.974V53.654z"/>
			<path fill="#009444" d="M39.979,59.671c0,2.54-1.802,3.704-3.661,3.704c-2.029,0-3.59-1.334-3.59-3.576s1.476-3.676,3.704-3.676
				C38.56,56.123,39.979,57.585,39.979,59.671z M34.956,59.742c0,1.191,0.497,2.086,1.419,2.086c0.837,0,1.376-0.837,1.376-2.086
				c0-1.036-0.397-2.086-1.376-2.086C35.339,57.656,34.956,58.721,34.956,59.742z"/>
			<path fill="#009444" d="M41.54,61.331c0.397,0.241,1.22,0.525,1.859,0.525c0.653,0,0.922-0.228,0.922-0.582
				s-0.213-0.524-1.021-0.795c-1.434-0.482-1.987-1.263-1.973-2.071c0-1.306,1.107-2.285,2.824-2.285
				c0.809,0,1.533,0.185,1.958,0.397l-0.383,1.49c-0.312-0.17-0.908-0.397-1.504-0.397c-0.525,0-0.823,0.213-0.823,0.567
				c0,0.327,0.27,0.497,1.121,0.795c1.32,0.454,1.873,1.121,1.887,2.143c0,1.292-1.021,2.257-3.008,2.257
				c-0.908,0-1.717-0.213-2.242-0.497L41.54,61.331z"/>
			<path fill="#009444" d="M51.132,53.782c0.667-0.114,1.604-0.199,2.923-0.199c1.334,0,2.285,0.256,2.923,0.767
				C57.589,54.832,58,55.627,58,56.563s-0.312,1.731-0.879,2.271c-0.738,0.695-1.831,1.008-3.108,1.008
				c-0.284,0-0.54-0.015-0.738-0.043v3.42h-2.143V53.782z M53.275,58.124c0.184,0.043,0.411,0.057,0.724,0.057
				c1.149,0,1.859-0.581,1.859-1.561c0-0.88-0.61-1.405-1.689-1.405c-0.439,0-0.738,0.043-0.894,0.086V58.124z"/>
			<path fill="#009444" d="M65.082,61.53c0,0.667,0.028,1.306,0.1,1.688h-1.944l-0.127-0.695h-0.043
				c-0.454,0.554-1.164,0.852-1.986,0.852c-1.405,0-2.242-1.021-2.242-2.129c0-1.802,1.618-2.668,4.073-2.653v-0.1
				c0-0.369-0.199-0.894-1.263-0.894c-0.709,0-1.461,0.241-1.916,0.524l-0.397-1.391c0.482-0.27,1.433-0.61,2.696-0.61
				c2.313,0,3.051,1.362,3.051,2.994V61.53z M62.981,59.94c-1.135-0.014-2.015,0.256-2.015,1.093c0,0.554,0.369,0.823,0.852,0.823
				c0.539,0,0.979-0.354,1.121-0.795c0.028-0.113,0.042-0.241,0.042-0.369V59.94z"/>
			<path fill="#009444" d="M69.253,54.35c0,0.596-0.454,1.078-1.164,1.078c-0.682,0-1.136-0.482-1.121-1.078
				c-0.015-0.624,0.439-1.093,1.135-1.093C68.799,53.257,69.239,53.726,69.253,54.35z M67.025,63.219v-6.939h2.157v6.939H67.025z"/>
			<path fill="#009444" d="M71.141,61.331c0.397,0.241,1.22,0.525,1.859,0.525c0.653,0,0.922-0.228,0.922-0.582
				s-0.213-0.524-1.021-0.795c-1.434-0.482-1.987-1.263-1.973-2.071c0-1.306,1.107-2.285,2.824-2.285
				c0.809,0,1.532,0.185,1.958,0.397l-0.383,1.49c-0.313-0.17-0.908-0.397-1.505-0.397c-0.524,0-0.823,0.213-0.823,0.567
				c0,0.327,0.27,0.497,1.121,0.795c1.32,0.454,1.874,1.121,1.888,2.143c0,1.292-1.021,2.257-3.008,2.257
				c-0.908,0-1.717-0.213-2.242-0.497L71.141,61.331z"/>
			<path fill="#009444" d="M83.344,61.53c0,0.667,0.028,1.306,0.1,1.688h-1.944l-0.128-0.695h-0.042
				c-0.454,0.554-1.164,0.852-1.987,0.852c-1.404,0-2.242-1.021-2.242-2.129c0-1.802,1.618-2.668,4.073-2.653v-0.1
				c0-0.369-0.199-0.894-1.263-0.894c-0.71,0-1.462,0.241-1.916,0.524l-0.397-1.391c0.482-0.27,1.434-0.61,2.696-0.61
				c2.313,0,3.051,1.362,3.051,2.994V61.53z M81.244,59.94c-1.136-0.014-2.016,0.256-2.016,1.093c0,0.554,0.369,0.823,0.852,0.823
				c0.539,0,0.979-0.354,1.121-0.795c0.028-0.113,0.043-0.241,0.043-0.369V59.94z"/>
			<path fill="#009444" d="M85.274,61.331c0.397,0.241,1.221,0.525,1.858,0.525c0.653,0,0.923-0.228,0.923-0.582
				s-0.213-0.524-1.021-0.795c-1.434-0.482-1.987-1.263-1.973-2.071c0-1.306,1.106-2.285,2.824-2.285
				c0.809,0,1.532,0.185,1.958,0.397l-0.383,1.49c-0.313-0.17-0.908-0.397-1.505-0.397c-0.524,0-0.823,0.213-0.823,0.567
				c0,0.327,0.271,0.497,1.121,0.795c1.32,0.454,1.874,1.121,1.888,2.143c0,1.292-1.021,2.257-3.009,2.257
				c-0.908,0-1.717-0.213-2.241-0.497L85.274,61.331z"/>
			<path fill="#009444" d="M90.709,64.907c0.44-1.263,0.823-2.738,1.021-4.03l2.2-0.142c-0.469,1.447-1.107,2.938-1.788,4.044
				L90.709,64.907z"/>
			<path fill="#009444" d="M98.727,60.991c0.582,0.298,1.476,0.596,2.398,0.596c0.993,0,1.518-0.411,1.518-1.036
				c0-0.596-0.454-0.937-1.604-1.348c-1.589-0.554-2.625-1.434-2.625-2.824c0-1.632,1.362-2.881,3.619-2.881
				c1.078,0,1.873,0.228,2.44,0.482l-0.482,1.746c-0.384-0.185-1.064-0.455-2.001-0.455s-1.391,0.426-1.391,0.923
				c0,0.61,0.539,0.88,1.773,1.349c1.688,0.624,2.483,1.504,2.483,2.852c0,1.604-1.234,2.98-3.859,2.98
				c-1.093,0-2.172-0.298-2.711-0.596L98.727,60.991z"/>
			<path fill="#009444" d="M107.581,63.375c-0.724,0-1.248-0.554-1.248-1.306c0-0.767,0.524-1.319,1.276-1.319
				c0.753,0,1.264,0.539,1.264,1.319c0,0.752-0.511,1.306-1.277,1.306H107.581z"/>
			<path fill="#009444" d="M112.718,60.764l-0.681,2.455h-2.242l2.923-9.564h2.839l2.966,9.564h-2.327l-0.738-2.455H112.718z
				 M115.145,59.146l-0.596-2.029c-0.17-0.568-0.341-1.277-0.482-1.846h-0.028c-0.142,0.568-0.284,1.292-0.44,1.846l-0.567,2.029
				H115.145z"/>
		</g>
		<g>
			<path fill="#ED1C24" d="M26.939,69.064l-1.214-3.754h0.746l0.513,1.704c0.145,0.474,0.267,0.914,0.367,1.37h0.011
				c0.101-0.445,0.234-0.902,0.384-1.358l0.546-1.716h0.729l-1.297,3.754H26.939z"/>
			<path fill="#ED1C24" d="M29.671,67.9c0.017,0.49,0.401,0.702,0.835,0.702c0.317,0,0.546-0.045,0.752-0.123l0.1,0.474
				c-0.234,0.095-0.557,0.173-0.947,0.173c-0.88,0-1.398-0.546-1.398-1.376c0-0.752,0.457-1.459,1.326-1.459
				c0.885,0,1.169,0.724,1.169,1.319c0,0.129-0.011,0.229-0.022,0.29H29.671z M30.863,67.422c0.005-0.251-0.106-0.663-0.563-0.663
				c-0.423,0-0.602,0.384-0.629,0.663H30.863z"/>
			<path fill="#ED1C24" d="M32.058,67.16c0-0.313-0.006-0.574-0.022-0.808h0.602l0.033,0.406h0.017
				c0.117-0.212,0.412-0.468,0.863-0.468c0.473,0,0.963,0.307,0.963,1.164v1.609h-0.685v-1.531c0-0.391-0.145-0.686-0.518-0.686
				c-0.273,0-0.462,0.195-0.535,0.401c-0.022,0.062-0.028,0.145-0.028,0.223v1.593h-0.69V67.16z"/>
			<path fill="#ED1C24" d="M35.998,65.656v0.696h0.652v0.512h-0.652v1.197c0,0.329,0.089,0.502,0.351,0.502
				c0.128,0,0.189-0.012,0.267-0.034l0.011,0.524c-0.1,0.039-0.278,0.072-0.496,0.072c-0.25,0-0.462-0.09-0.59-0.229
				c-0.145-0.156-0.212-0.401-0.212-0.758v-1.275h-0.39v-0.512h0.39v-0.502L35.998,65.656z"/>
			<path fill="#ED1C24" d="M39.271,68.413c0,0.245,0.011,0.484,0.039,0.651h-0.618l-0.044-0.301h-0.017
				c-0.167,0.212-0.451,0.362-0.802,0.362c-0.546,0-0.852-0.396-0.852-0.808c0-0.686,0.607-1.03,1.609-1.025v-0.044
				c0-0.179-0.072-0.474-0.551-0.474c-0.267,0-0.546,0.084-0.729,0.2l-0.134-0.445c0.201-0.122,0.551-0.239,0.98-0.239
				c0.869,0,1.119,0.551,1.119,1.142V68.413z M38.603,67.739c-0.485-0.012-0.947,0.095-0.947,0.507c0,0.267,0.172,0.39,0.39,0.39
				c0.273,0,0.474-0.179,0.535-0.373c0.017-0.051,0.022-0.106,0.022-0.15V67.739z"/>
			<path fill="#ED1C24" d="M41.573,66.353l0.49,1.453c0.056,0.167,0.111,0.373,0.15,0.529h0.017
				c0.044-0.156,0.095-0.356,0.145-0.535l0.423-1.447h0.735l-0.679,1.849c-0.374,1.014-0.624,1.465-0.947,1.743
				c-0.267,0.239-0.545,0.329-0.718,0.351l-0.156-0.579c0.117-0.027,0.262-0.089,0.401-0.189c0.128-0.083,0.278-0.245,0.373-0.429
				c0.028-0.05,0.044-0.089,0.044-0.122c0-0.028-0.005-0.067-0.039-0.134l-0.992-2.489H41.573z"/>
			<path fill="#ED1C24" d="M45.106,65.36c0.301-0.05,0.685-0.077,1.091-0.077c0.702,0,1.187,0.145,1.532,0.434
				c0.362,0.296,0.585,0.741,0.585,1.382c0,0.668-0.229,1.169-0.585,1.492c-0.373,0.34-0.969,0.513-1.699,0.513
				c-0.401,0-0.702-0.022-0.924-0.05V65.36z M45.792,68.541c0.095,0.017,0.239,0.017,0.378,0.017c0.891,0.006,1.42-0.484,1.42-1.437
				c0.005-0.83-0.473-1.304-1.331-1.304c-0.217,0-0.373,0.017-0.468,0.039V68.541z"/>
			<path fill="#ED1C24" d="M49.625,65.595c0,0.206-0.15,0.367-0.39,0.367c-0.229,0-0.379-0.161-0.379-0.367
				c0-0.212,0.156-0.373,0.384-0.373C49.475,65.222,49.62,65.383,49.625,65.595z M48.896,69.064v-2.712h0.69v2.712H48.896z"/>
			<path fill="#ED1C24" d="M50.287,68.436c0.156,0.094,0.451,0.194,0.696,0.194c0.301,0,0.435-0.122,0.435-0.301
				c0-0.184-0.111-0.278-0.446-0.396c-0.529-0.184-0.752-0.473-0.746-0.791c0-0.479,0.396-0.852,1.025-0.852
				c0.301,0,0.563,0.078,0.718,0.161l-0.134,0.484c-0.117-0.066-0.334-0.155-0.574-0.155c-0.245,0-0.378,0.116-0.378,0.284
				c0,0.172,0.128,0.256,0.473,0.378c0.49,0.179,0.719,0.43,0.724,0.83c0,0.49-0.384,0.853-1.103,0.853
				c-0.329,0-0.624-0.084-0.824-0.195L50.287,68.436z"/>
			<path fill="#ED1C24" d="M53.426,65.656v0.696h0.652v0.512h-0.652v1.197c0,0.329,0.089,0.502,0.351,0.502
				c0.128,0,0.189-0.012,0.267-0.034l0.011,0.524c-0.1,0.039-0.278,0.072-0.496,0.072c-0.25,0-0.462-0.09-0.59-0.229
				c-0.145-0.156-0.212-0.401-0.212-0.758v-1.275h-0.39v-0.512h0.39v-0.502L53.426,65.656z"/>
			<path fill="#ED1C24" d="M54.594,67.227c0-0.367-0.006-0.629-0.022-0.874h0.596l0.022,0.518h0.022
				c0.134-0.385,0.451-0.579,0.741-0.579c0.067,0,0.106,0.006,0.162,0.017v0.646c-0.056-0.012-0.117-0.022-0.201-0.022
				c-0.329,0-0.551,0.211-0.613,0.518c-0.011,0.062-0.022,0.134-0.022,0.212v1.403h-0.685V67.227z"/>
			<path fill="#ED1C24" d="M57.304,65.595c0,0.206-0.15,0.367-0.39,0.367c-0.229,0-0.379-0.161-0.379-0.367
				c0-0.212,0.156-0.373,0.384-0.373C57.153,65.222,57.298,65.383,57.304,65.595z M56.574,69.064v-2.712h0.69v2.712H56.574z"/>
			<path fill="#ED1C24" d="M57.999,65.11h0.685v1.615h0.011c0.167-0.262,0.462-0.435,0.869-0.435c0.663,0,1.136,0.551,1.13,1.376
				c0,0.975-0.618,1.459-1.23,1.459c-0.351,0-0.663-0.134-0.858-0.468h-0.011l-0.033,0.406h-0.585
				c0.011-0.184,0.022-0.484,0.022-0.763V65.11z M58.684,67.945c0,0.056,0.005,0.111,0.017,0.161
				c0.072,0.273,0.312,0.479,0.607,0.479c0.429,0,0.691-0.346,0.691-0.892c0-0.479-0.229-0.869-0.685-0.869
				c-0.279,0-0.529,0.201-0.607,0.502c-0.011,0.05-0.022,0.111-0.022,0.178V67.945z"/>
			<path fill="#ED1C24" d="M63.682,68.251c0,0.323,0.011,0.591,0.022,0.813h-0.602l-0.034-0.412h-0.011
				c-0.117,0.195-0.384,0.474-0.869,0.474c-0.496,0-0.947-0.296-0.947-1.181v-1.593h0.685v1.476c0,0.451,0.145,0.74,0.507,0.74
				c0.273,0,0.451-0.194,0.523-0.367c0.022-0.062,0.039-0.134,0.039-0.212v-1.637h0.685V68.251z"/>
			<path fill="#ED1C24" d="M66.414,68.98c-0.145,0.067-0.429,0.146-0.769,0.146c-0.847,0-1.398-0.546-1.398-1.387
				c0-0.813,0.557-1.448,1.509-1.448c0.251,0,0.507,0.056,0.663,0.128l-0.123,0.513c-0.111-0.051-0.273-0.106-0.518-0.106
				c-0.523,0-0.835,0.385-0.83,0.88c0,0.558,0.362,0.875,0.83,0.875c0.239,0,0.407-0.051,0.54-0.106L66.414,68.98z"/>
			<path fill="#ED1C24" d="M67.648,65.595c0,0.206-0.15,0.367-0.39,0.367c-0.229,0-0.379-0.161-0.379-0.367
				c0-0.212,0.156-0.373,0.384-0.373C67.498,65.222,67.643,65.383,67.648,65.595z M66.918,69.064v-2.712h0.69v2.712H66.918z"/>
			<path fill="#ED1C24" d="M70.922,67.684c0,0.996-0.702,1.442-1.393,1.442c-0.769,0-1.359-0.529-1.359-1.398
				c0-0.891,0.585-1.437,1.404-1.437C70.382,66.291,70.922,66.859,70.922,67.684z M68.878,67.711c0,0.523,0.256,0.919,0.674,0.919
				c0.39,0,0.663-0.384,0.663-0.93c0-0.424-0.189-0.908-0.657-0.908C69.073,66.792,68.878,67.26,68.878,67.711z M70.365,65.177
				l-0.685,0.824h-0.473l0.484-0.824H70.365z"/>
			<path fill="#ED1C24" d="M71.481,67.16c0-0.313-0.006-0.574-0.022-0.808h0.602l0.033,0.406h0.017
				c0.117-0.212,0.412-0.468,0.863-0.468c0.473,0,0.963,0.307,0.963,1.164v1.609h-0.686v-1.531c0-0.391-0.145-0.686-0.518-0.686
				c-0.273,0-0.462,0.195-0.535,0.401c-0.022,0.062-0.028,0.145-0.028,0.223v1.593h-0.69V67.16z"/>
			<path fill="#ED1C24" d="M78.316,65.11v3.191c0,0.278,0.012,0.579,0.022,0.763h-0.612l-0.028-0.429h-0.011
				c-0.162,0.301-0.49,0.49-0.886,0.49c-0.646,0-1.158-0.552-1.158-1.387c-0.006-0.908,0.563-1.448,1.214-1.448
				c0.373,0,0.641,0.156,0.763,0.356h0.012V65.11H78.316z M77.632,67.482c0-0.056-0.006-0.122-0.017-0.178
				c-0.062-0.268-0.279-0.484-0.591-0.484c-0.44,0-0.685,0.39-0.685,0.896c0,0.495,0.244,0.857,0.679,0.857
				c0.278,0,0.523-0.189,0.591-0.484c0.017-0.062,0.022-0.128,0.022-0.2V67.482z"/>
			<path fill="#ED1C24" d="M79.534,67.9c0.017,0.49,0.4,0.702,0.835,0.702c0.317,0,0.546-0.045,0.752-0.123l0.101,0.474
				c-0.234,0.095-0.558,0.173-0.947,0.173c-0.88,0-1.397-0.546-1.397-1.376c0-0.752,0.456-1.459,1.325-1.459
				c0.886,0,1.17,0.724,1.17,1.319c0,0.129-0.012,0.229-0.022,0.29H79.534z M80.726,67.422c0.006-0.251-0.105-0.663-0.563-0.663
				c-0.423,0-0.602,0.384-0.629,0.663H80.726z"/>
			<path fill="#ED1C24" d="M86.269,67.533c-0.022-0.485-0.05-1.069-0.045-1.582h-0.017c-0.122,0.462-0.278,0.969-0.445,1.442
				l-0.546,1.626h-0.529l-0.501-1.604c-0.145-0.479-0.278-0.991-0.379-1.465h-0.011c-0.017,0.496-0.039,1.092-0.067,1.604
				l-0.083,1.51h-0.641l0.251-3.754h0.902l0.489,1.51c0.134,0.439,0.251,0.885,0.346,1.303h0.017
				c0.101-0.406,0.229-0.869,0.373-1.309l0.519-1.504h0.891l0.218,3.754h-0.669L86.269,67.533z"/>
			<path fill="#ED1C24" d="M88.187,67.9c0.017,0.49,0.4,0.702,0.835,0.702c0.317,0,0.546-0.045,0.752-0.123l0.101,0.474
				c-0.234,0.095-0.558,0.173-0.947,0.173c-0.88,0-1.397-0.546-1.397-1.376c0-0.752,0.456-1.459,1.325-1.459
				c0.886,0,1.17,0.724,1.17,1.319c0,0.129-0.012,0.229-0.022,0.29H88.187z M89.378,67.422c0.006-0.251-0.105-0.663-0.563-0.663
				c-0.423,0-0.602,0.384-0.629,0.663H89.378z"/>
			<path fill="#ED1C24" d="M93.073,65.11v3.191c0,0.278,0.012,0.579,0.022,0.763h-0.612l-0.028-0.429h-0.011
				c-0.162,0.301-0.49,0.49-0.886,0.49c-0.646,0-1.158-0.552-1.158-1.387c-0.006-0.908,0.563-1.448,1.214-1.448
				c0.373,0,0.641,0.156,0.763,0.356h0.012V65.11H93.073z M92.389,67.482c0-0.056-0.006-0.122-0.017-0.178
				c-0.062-0.268-0.279-0.484-0.591-0.484c-0.44,0-0.686,0.39-0.686,0.896c0,0.495,0.245,0.857,0.68,0.857
				c0.278,0,0.523-0.189,0.591-0.484c0.017-0.062,0.022-0.128,0.022-0.2V67.482z"/>
			<path fill="#ED1C24" d="M94.536,65.595c0,0.206-0.15,0.367-0.391,0.367c-0.229,0-0.379-0.161-0.379-0.367
				c0-0.212,0.156-0.373,0.385-0.373C94.386,65.222,94.53,65.383,94.536,65.595z M93.806,69.064v-2.712h0.691v2.712H93.806z"/>
			<path fill="#ED1C24" d="M97.224,68.98c-0.145,0.067-0.429,0.146-0.769,0.146c-0.847,0-1.397-0.546-1.397-1.387
				c0-0.813,0.557-1.448,1.509-1.448c0.251,0,0.507,0.056,0.663,0.128l-0.123,0.513c-0.111-0.051-0.272-0.106-0.518-0.106
				c-0.523,0-0.835,0.385-0.83,0.88c0,0.558,0.362,0.875,0.83,0.875c0.239,0,0.406-0.051,0.54-0.106L97.224,68.98z"/>
			<path fill="#ED1C24" d="M99.834,68.413c0,0.245,0.012,0.484,0.039,0.651h-0.618l-0.045-0.301h-0.017
				c-0.167,0.212-0.451,0.362-0.802,0.362c-0.546,0-0.853-0.396-0.853-0.808c0-0.686,0.607-1.03,1.61-1.025v-0.044
				c0-0.179-0.072-0.474-0.552-0.474c-0.268,0-0.546,0.084-0.729,0.2l-0.134-0.445c0.2-0.122,0.552-0.239,0.98-0.239
				c0.869,0,1.119,0.551,1.119,1.142V68.413z M99.166,67.739c-0.484-0.012-0.947,0.095-0.947,0.507c0,0.267,0.173,0.39,0.391,0.39
				c0.272,0,0.473-0.179,0.534-0.373c0.017-0.051,0.022-0.106,0.022-0.15V67.739z"/>
			<path fill="#ED1C24" d="M100.555,67.16c0-0.313-0.005-0.574-0.021-0.808h0.59l0.028,0.4h0.017
				c0.134-0.212,0.379-0.462,0.835-0.462c0.356,0,0.635,0.2,0.752,0.501h0.012c0.095-0.15,0.206-0.262,0.334-0.34
				c0.15-0.105,0.323-0.161,0.546-0.161c0.451,0,0.907,0.307,0.907,1.175v1.599h-0.668v-1.498c0-0.451-0.156-0.719-0.484-0.719
				c-0.234,0-0.407,0.167-0.479,0.362c-0.017,0.066-0.033,0.15-0.033,0.229v1.626h-0.668v-1.57c0-0.379-0.15-0.646-0.468-0.646
				c-0.257,0-0.43,0.2-0.49,0.39c-0.028,0.067-0.039,0.146-0.039,0.224v1.604h-0.669V67.16z"/>
			<path fill="#ED1C24" d="M105.759,67.9c0.017,0.49,0.4,0.702,0.835,0.702c0.317,0,0.546-0.045,0.752-0.123l0.101,0.474
				c-0.234,0.095-0.558,0.173-0.947,0.173c-0.88,0-1.397-0.546-1.397-1.376c0-0.752,0.456-1.459,1.325-1.459
				c0.886,0,1.17,0.724,1.17,1.319c0,0.129-0.012,0.229-0.022,0.29H105.759z M106.95,67.422c0.006-0.251-0.105-0.663-0.563-0.663
				c-0.423,0-0.602,0.384-0.629,0.663H106.95z"/>
			<path fill="#ED1C24" d="M108.145,67.16c0-0.313-0.005-0.574-0.021-0.808h0.602l0.033,0.406h0.017
				c0.117-0.212,0.412-0.468,0.863-0.468c0.474,0,0.963,0.307,0.963,1.164v1.609h-0.685v-1.531c0-0.391-0.145-0.686-0.518-0.686
				c-0.273,0-0.463,0.195-0.535,0.401c-0.022,0.062-0.027,0.145-0.027,0.223v1.593h-0.691V67.16z"/>
			<path fill="#ED1C24" d="M112.086,65.656v0.696h0.651v0.512h-0.651v1.197c0,0.329,0.089,0.502,0.351,0.502
				c0.128,0,0.189-0.012,0.268-0.034l0.011,0.524c-0.101,0.039-0.278,0.072-0.496,0.072c-0.25,0-0.462-0.09-0.59-0.229
				c-0.145-0.156-0.212-0.401-0.212-0.758v-1.275h-0.39v-0.512h0.39v-0.502L112.086,65.656z"/>
			<path fill="#ED1C24" d="M115.799,67.684c0,0.996-0.702,1.442-1.393,1.442c-0.769,0-1.358-0.529-1.358-1.398
				c0-0.891,0.584-1.437,1.403-1.437C115.259,66.291,115.799,66.859,115.799,67.684z M113.755,67.711
				c0,0.523,0.256,0.919,0.674,0.919c0.39,0,0.663-0.384,0.663-0.93c0-0.424-0.189-0.908-0.657-0.908
				C113.95,66.792,113.755,67.26,113.755,67.711z"/>
			<path fill="#ED1C24" d="M116.324,68.436c0.156,0.094,0.451,0.194,0.696,0.194c0.301,0,0.435-0.122,0.435-0.301
				c0-0.184-0.111-0.278-0.445-0.396c-0.529-0.184-0.752-0.473-0.747-0.791c0-0.479,0.396-0.852,1.025-0.852
				c0.301,0,0.563,0.078,0.719,0.161l-0.134,0.484c-0.117-0.066-0.335-0.155-0.574-0.155c-0.245,0-0.379,0.116-0.379,0.284
				c0,0.172,0.129,0.256,0.474,0.378c0.49,0.179,0.719,0.43,0.725,0.83c0,0.49-0.385,0.853-1.104,0.853
				c-0.328,0-0.623-0.084-0.824-0.195L116.324,68.436z"/>
		</g>
	</g>
	<g>
		<polygon fill="#006838" points="85.369,51.299 46.467,32.929 87.115,5.372 		"/>
		<g>
			<path fill="#FFFFFF" stroke="#000000" stroke-width="0.25" stroke-miterlimit="10" d="M74.624,38.39
				c-3.655,2.11-8.331,0.854-10.438-2.8l0,0c-2.109-3.656-0.853-8.33,2.802-10.438l19.085-11.006
				c3.655-2.108,8.328-0.854,10.438,2.803l0,0c2.108,3.656,0.854,8.33-2.806,10.437L74.624,38.39z"/>
			<path fill="#FFFFFF" stroke="#000000" stroke-width="0.25" stroke-miterlimit="10" d="M77.422,19.133
				c0,0-6.239,11.782,6.672,13.795"/>
			<g>
				<path fill="#FFFFFF" d="M84.094,17.716c0.365-0.088,5.096-6.59,11.28,0"/>
				<path d="M84.07,17.672c0,0,0.034-0.044,0.097-0.127c0.058-0.095,0.088-0.201,0.191-0.36c0.187-0.321,0.487-0.768,0.928-1.251
					c0.233-0.228,0.471-0.501,0.785-0.72c0.295-0.245,0.638-0.471,1.02-0.666c0.182-0.114,0.396-0.179,0.601-0.269
					c0.208-0.084,0.415-0.18,0.647-0.212l0.688-0.139c0.232-0.031,0.472-0.03,0.709-0.042c0.479-0.031,0.94,0.105,1.398,0.172
					c0.447,0.108,0.853,0.32,1.252,0.474c0.368,0.213,0.704,0.45,1.02,0.666c0.303,0.231,0.543,0.501,0.774,0.729
					c0.239,0.222,0.428,0.452,0.568,0.678c0.153,0.213,0.271,0.411,0.371,0.568c0.195,0.32,0.291,0.509,0.291,0.509l-0.072,0.068
					c0,0-0.148-0.139-0.409-0.383c-0.273-0.227-0.598-0.632-1.113-0.962c-0.25-0.173-0.508-0.382-0.804-0.563
					c-0.309-0.16-0.635-0.329-0.972-0.503c-0.361-0.11-0.728-0.255-1.112-0.343c-0.393-0.04-0.787-0.155-1.19-0.11
					c-0.2,0.007-0.402-0.004-0.601,0.017l-0.589,0.103c-0.387,0.077-0.759,0.21-1.107,0.35c-0.347,0.154-0.677,0.313-0.97,0.503
					c-0.307,0.167-0.562,0.38-0.813,0.551c-0.478,0.379-0.854,0.721-1.109,0.972c-0.135,0.127-0.24,0.227-0.313,0.294
					c-0.078,0.056-0.119,0.086-0.119,0.086L84.07,17.672z"/>
			</g>
			<g>
				<path fill="#FFFFFF" d="M75.562,36.406c-0.376-0.044-7.076,4.403-10.579-3.929"/>
				<path d="M75.568,36.456c0,0-0.048,0.03-0.136,0.085c-0.087,0.069-0.152,0.158-0.305,0.271c-0.287,0.235-0.725,0.55-1.306,0.85
					c-0.299,0.133-0.616,0.307-0.987,0.401c-0.362,0.127-0.762,0.22-1.188,0.27c-0.21,0.043-0.433,0.03-0.656,0.043
					c-0.224,0.006-0.453,0.024-0.681-0.026l-0.693-0.109c-0.229-0.052-0.454-0.136-0.68-0.208c-0.46-0.138-0.845-0.426-1.251-0.648
					c-0.382-0.256-0.688-0.597-1.009-0.88c-0.271-0.328-0.503-0.667-0.724-0.979c-0.203-0.321-0.334-0.659-0.472-0.954
					c-0.147-0.291-0.243-0.572-0.296-0.833c-0.07-0.253-0.112-0.48-0.151-0.663c-0.071-0.368-0.096-0.579-0.095-0.579l0.092-0.039
					c0,0,0.091,0.183,0.25,0.501c0.178,0.308,0.341,0.801,0.709,1.291c0.174,0.25,0.343,0.535,0.557,0.809
					c0.234,0.257,0.481,0.529,0.736,0.81c0.301,0.229,0.593,0.493,0.924,0.709c0.355,0.174,0.685,0.419,1.078,0.518
					c0.19,0.063,0.375,0.145,0.569,0.193l0.588,0.109c0.39,0.062,0.785,0.067,1.161,0.057c0.378-0.023,0.744-0.057,1.084-0.133
					c0.345-0.05,0.659-0.162,0.954-0.234c0.58-0.189,1.053-0.378,1.379-0.524c0.171-0.072,0.305-0.128,0.396-0.167
					c0.093-0.025,0.142-0.039,0.142-0.039L75.568,36.456z"/>
			</g>
		</g>
	</g>
</g>
</svg>
